<svg width="376" height="90" viewBox="0 0 376 90" fill="none" xmlns="http://www.w3.org/2000/svg">
<path d="M0.3125 59V2.36H3.1925V59H0.3125ZM11.8325 59V2.36H20.4725V59H11.8325ZM23.3525 59V2.36H26.2325V59H23.3525ZM29.1125 59V2.36H37.7525V59H29.1125ZM40.6325 59V2.36H43.5125V59H40.6325ZM51.2375 40.376L87.4295 25.304L51.2375 8.12V0.631996L96.4535 23.192V27.992L51.2375 47.864V40.376ZM101.375 59V2.36H104.255V59H101.375ZM112.895 59V2.36H121.535V59H112.895ZM124.415 59V2.36H127.295V59H124.415ZM130.175 59V2.36H138.815V59H130.175ZM141.695 59V2.36H144.575V59H141.695ZM147.5 59V2.36H150.38V59H147.5ZM159.02 59V2.36H167.66V59H159.02ZM170.54 59V2.36H173.42V59H170.54ZM176.3 59V2.36H179.18V59H176.3ZM182.06 59V2.36H190.7V59H182.06ZM162.476 67.352H165.068L170.828 84.44L176.204 67.352H178.7L171.212 89.72H170.06L162.476 67.352ZM193.625 59V2.36H202.265V59H193.625ZM205.145 59V2.36H208.025V59H205.145ZM210.905 59V2.36H219.545V59H210.905ZM222.425 59V2.36H225.305V59H222.425ZM233.945 59V2.36H236.825V59H233.945ZM216.665 90.008C214.105 90.008 212.153 89.016 210.809 87.032C209.401 85.048 208.697 82.232 208.697 78.584C208.697 75.064 209.401 72.28 210.809 70.232C212.217 68.248 214.169 67.256 216.665 67.256C219.161 67.256 221.113 68.248 222.521 70.232C223.929 72.28 224.633 75.064 224.633 78.584C224.633 82.232 223.929 85.048 222.521 87.032C221.177 89.016 219.225 90.008 216.665 90.008ZM216.665 87.8C218.393 87.8 219.705 87.032 220.601 85.496C221.561 83.896 222.041 81.592 222.041 78.584C222.041 75.768 221.561 73.528 220.601 71.864C219.641 70.264 218.329 69.464 216.665 69.464C215.001 69.464 213.689 70.264 212.729 71.864C211.769 73.528 211.289 75.768 211.289 78.584C211.289 81.592 211.737 83.896 212.633 85.496C213.593 87.032 214.937 87.8 216.665 87.8ZM239.75 59V2.36H242.63V59H239.75ZM245.51 59V2.36H254.15V59H245.51ZM257.03 59V2.36H259.91V59H257.03ZM268.55 59V2.36H277.19V59H268.55ZM280.07 59V2.36H282.95V59H280.07ZM256.742 87.512H261.158V69.464H257.03V67.352H268.07V69.464H263.654V87.512H268.262V89.624H256.742V87.512ZM285.875 59V2.36H288.755V59H285.875ZM291.635 59V2.36H294.515V59H291.635ZM297.395 59V2.36H306.035V59H297.395ZM314.675 59V2.36H317.555V59H314.675ZM320.435 59V2.36H329.075V59H320.435ZM301.907 67.352H307.091C308.947 67.352 310.387 67.608 311.411 68.12C312.499 68.632 313.427 69.4 314.195 70.424C315.667 72.344 316.403 75.064 316.403 78.584C316.275 82.232 315.443 84.984 313.907 86.84C312.371 88.76 309.971 89.688 306.707 89.624H301.907V67.352ZM306.515 87.704C311.443 87.704 313.907 84.728 313.907 78.776C313.907 75.768 313.363 73.464 312.275 71.864C311.123 70.264 309.331 69.464 306.899 69.464H304.307V87.704H306.515ZM332 59V2.36H334.88V59H332ZM343.52 59V2.36H352.16V59H343.52ZM355.04 59V2.36H357.92V59H355.04ZM360.8 59V2.36H369.44V59H360.8ZM372.32 59V2.36H375.2V59H372.32Z" fill="#00FF5E"/>
</svg>
